<svg xmlns="http://www.w3.org/2000/svg" width="172" height="41" viewBox="0 0 172 41" fill="none">
  <rect x="33.541" y="13.5" width="1.67712" height="16" rx="0.838558" fill="url(#paint0_linear_6_34859)"/>
  <rect x="36.0566" y="18.5" width="0.838558" height="4" rx="0.419279" fill="url(#paint1_linear_6_34859)"/>
  <rect x="38.5742" y="13.5" width="1.67712" height="16" rx="0.838558" fill="url(#paint2_linear_6_34859)"/>
  <rect x="41.0879" y="8.5" width="0.838558" height="24" rx="0.419279" fill="url(#paint3_linear_6_34859)"/>
  <rect x="43.6055" y="13.5" width="1.67712" height="16" rx="0.838558" fill="url(#paint4_linear_6_34859)"/>
  <rect x="46.1211" y="16.5" width="3.35423" height="9" rx="1.67712" fill="url(#paint5_linear_6_34859)"/>
  <rect x="51.1523" y="10.5" width="3.35423" height="21" rx="1.67712" fill="url(#paint6_linear_6_34859)"/>
  <rect x="56.1855" y="0.5" width="2.51567" height="40" rx="1.25784" fill="url(#paint7_linear_6_34859)"/>
  <g opacity="0.6">
    <rect x="25.4316" y="17.8984" width="1.45888" height="4.70885" rx="0.729439" fill="url(#paint8_linear_6_34859)"/>
    <rect x="27.6191" y="13.1875" width="2.18832" height="16.0101" rx="1.09416" fill="url(#paint9_linear_6_34859)"/>
    <rect x="30.5352" y="8.48047" width="1.45888" height="24.486" rx="0.729439" fill="url(#paint10_linear_6_34859)"/>
    <rect y="18.3867" width="1.45888" height="3.76708" rx="0.729439" fill="url(#paint11_linear_6_34859)"/>
    <rect x="2.91992" y="12.7383" width="1.45888" height="16.0101" rx="0.729439" fill="url(#paint12_linear_6_34859)"/>
    <rect x="5.10547" y="8.02734" width="1.45888" height="24.486" rx="0.729439" fill="url(#paint13_linear_6_34859)"/>
    <rect x="8.02148" y="12.7383" width="1.45888" height="16.0101" rx="0.729439" fill="url(#paint14_linear_6_34859)"/>
    <rect x="10.209" y="15.5625" width="3.64719" height="9.4177" rx="1.8236" fill="url(#paint15_linear_6_34859)"/>
    <rect x="15.3184" y="9.91406" width="3.64719" height="20.7189" rx="1.8236" fill="url(#paint16_linear_6_34859)"/>
    <rect x="20.4258" y="0.492188" width="2.91775" height="39.5543" rx="1.45888" fill="url(#paint17_linear_6_34859)"/>
  </g>
  <g opacity="0.6">
    <rect x="63.3633" y="17.8984" width="1.45888" height="4.70885" rx="0.729439" fill="url(#paint18_linear_6_34859)"/>
    <rect x="65.5508" y="12.2461" width="2.18832" height="16.0101" rx="1.09416" fill="url(#paint19_linear_6_34859)"/>
    <rect x="68.4668" y="7.53906" width="1.45888" height="24.486" rx="0.729439" fill="url(#paint20_linear_6_34859)"/>
    <rect x="70.6562" y="12.2461" width="2.18832" height="16.0101" rx="1.09416" fill="url(#paint21_linear_6_34859)"/>
    <rect x="73.5723" y="17.8984" width="1.45888" height="4.70885" rx="0.729439" fill="url(#paint22_linear_6_34859)"/>
    <rect x="75.7617" y="12.2461" width="2.18832" height="16.0101" rx="1.09416" fill="url(#paint23_linear_6_34859)"/>
    <rect x="78.6836" y="7.53906" width="1.45888" height="24.486" rx="0.729439" fill="url(#paint24_linear_6_34859)"/>
    <rect x="80.8691" y="12.2461" width="1.45888" height="16.0101" rx="0.729439" fill="url(#paint25_linear_6_34859)"/>
    <rect x="83.7891" y="16.0156" width="2.91775" height="9.4177" rx="1.45888" fill="url(#paint26_linear_6_34859)"/>
    <rect x="88.8945" y="10.3633" width="2.91775" height="20.7189" rx="1.45888" fill="url(#paint27_linear_6_34859)"/>
    <rect x="93.998" y="0.00390625" width="2.91775" height="40.4961" rx="1.45888" fill="url(#paint28_linear_6_34859)"/>
    <rect x="91.082" y="18.8398" width="1.45888" height="2.82531" rx="0.729439" fill="url(#paint29_linear_6_34859)"/>
    <rect opacity="0.6" width="1.45888" height="4.70885" rx="0.729439" transform="matrix(-1 0 0 1 134.848 17.8984)" fill="url(#paint30_linear_6_34859)"/>
    <rect opacity="0.6" width="2.18832" height="16.0101" rx="1.09416" transform="matrix(-1 0 0 1 132.66 12.2461)" fill="url(#paint31_linear_6_34859)"/>
    <rect width="1.45888" height="24.486" rx="0.729439" transform="matrix(-1 0 0 1 129.74 7.53906)" fill="url(#paint32_linear_6_34859)"/>
    <rect width="1.45888" height="16.0101" rx="0.729439" transform="matrix(-1 0 0 1 126.824 12.2461)" fill="url(#paint33_linear_6_34859)"/>
    <rect width="1.45888" height="4.70885" rx="0.729439" transform="matrix(-1 0 0 1 124.635 17.8984)" fill="url(#paint34_linear_6_34859)"/>
    <rect opacity="0.6" width="1.45888" height="4.70885" rx="0.729439" transform="matrix(-1 0 0 1 147.725 18.3242)" fill="url(#paint35_linear_6_34859)"/>
    <rect opacity="0.6" width="2.18832" height="16.0101" rx="1.09416" transform="matrix(-1 0 0 1 145.535 12.6719)" fill="url(#paint36_linear_6_34859)"/>
    <rect opacity="0.6" width="1.45888" height="24.486" rx="0.729439" transform="matrix(-1 0 0 1 142.617 7.96484)" fill="url(#paint37_linear_6_34859)"/>
    <rect opacity="0.6" width="1.45888" height="16.0101" rx="0.729439" transform="matrix(-1 0 0 1 139.697 12.6719)" fill="url(#paint38_linear_6_34859)"/>
    <rect opacity="0.6" width="1.45888" height="4.70885" rx="0.729439" transform="matrix(-1 0 0 1 137.512 18.3242)" fill="url(#paint39_linear_6_34859)"/>
    <rect width="1.45888" height="16.0101" rx="0.729439" transform="matrix(-1 0 0 1 121.719 12.2461)" fill="url(#paint40_linear_6_34859)"/>
    <rect width="1.45888" height="24.486" rx="0.729439" transform="matrix(-1 0 0 1 119.529 7.53906)" fill="url(#paint41_linear_6_34859)"/>
    <rect width="1.45888" height="16.0101" rx="0.729439" transform="matrix(-1 0 0 1 116.613 12.2461)" fill="url(#paint42_linear_6_34859)"/>
    <rect width="3.64719" height="9.4177" rx="1.8236" transform="matrix(-1 0 0 1 114.426 16.0156)" fill="url(#paint43_linear_6_34859)"/>
    <rect width="3.64719" height="20.7189" rx="1.8236" transform="matrix(-1 0 0 1 109.316 10.3633)" fill="url(#paint44_linear_6_34859)"/>
    <rect width="2.91775" height="40.4961" rx="1.45888" transform="matrix(-1 0 0 1 104.213 0.00390625)" fill="url(#paint45_linear_6_34859)"/>
    <rect opacity="0.6" width="1.45888" height="4.70885" rx="0.729439" transform="matrix(-1 0 0 1 172.002 17.8945)" fill="url(#paint46_linear_6_34859)"/>
    <rect opacity="0.6" width="1.45888" height="16.0101" rx="0.729439" transform="matrix(-1 0 0 1 169.086 12.2422)" fill="url(#paint47_linear_6_34859)"/>
    <rect opacity="0.6" width="1.45888" height="24.486" rx="0.729439" transform="matrix(-1 0 0 1 166.896 7.53516)" fill="url(#paint48_linear_6_34859)"/>
    <rect opacity="0.6" width="1.45888" height="16.0101" rx="0.729439" transform="matrix(-1 0 0 1 163.979 12.2422)" fill="url(#paint49_linear_6_34859)"/>
    <rect opacity="0.6" width="3.64719" height="9.4177" rx="1.8236" transform="matrix(-1 0 0 1 161.793 16.0117)" fill="url(#paint50_linear_6_34859)"/>
    <rect opacity="0.6" width="3.64719" height="20.7189" rx="1.8236" transform="matrix(-1 0 0 1 156.684 10.3594)" fill="url(#paint51_linear_6_34859)"/>
    <rect opacity="0.6" width="2.91775" height="40.4961" rx="1.45888" transform="matrix(-1 0 0 1 151.58 0)" fill="url(#paint52_linear_6_34859)"/>
    <rect width="2.18832" height="2.82531" rx="1.09416" transform="matrix(-1 0 0 1 107.129 18.8398)" fill="url(#paint53_linear_6_34859)"/>
  </g>
  <defs>
    <linearGradient id="paint0_linear_6_34859" x1="34.3796" y1="13.5" x2="34.3796" y2="29.5" gradientUnits="userSpaceOnUse">
      <stop stop-color="#C2FFE5"/>
      <stop offset="1" stop-color="#3C995B"/>
    </linearGradient>
    <linearGradient id="paint1_linear_6_34859" x1="36.4759" y1="18.5" x2="36.4759" y2="22.5" gradientUnits="userSpaceOnUse">
      <stop stop-color="#C2FFE5"/>
      <stop offset="1" stop-color="#3C995B"/>
    </linearGradient>
    <linearGradient id="paint2_linear_6_34859" x1="39.4128" y1="13.5" x2="39.4128" y2="29.5" gradientUnits="userSpaceOnUse">
      <stop stop-color="#C2FFE5"/>
      <stop offset="1" stop-color="#3C995B"/>
    </linearGradient>
    <linearGradient id="paint3_linear_6_34859" x1="41.5072" y1="8.5" x2="41.5072" y2="32.5" gradientUnits="userSpaceOnUse">
      <stop stop-color="#C2FFE5"/>
      <stop offset="1" stop-color="#3C995B"/>
    </linearGradient>
    <linearGradient id="paint4_linear_6_34859" x1="44.444" y1="13.5" x2="44.444" y2="29.5" gradientUnits="userSpaceOnUse">
      <stop stop-color="#C2FFE5"/>
      <stop offset="1" stop-color="#3C995B"/>
    </linearGradient>
    <linearGradient id="paint5_linear_6_34859" x1="47.7982" y1="16.5" x2="47.7982" y2="25.5" gradientUnits="userSpaceOnUse">
      <stop stop-color="#C2FFE5"/>
      <stop offset="1" stop-color="#3C995B"/>
    </linearGradient>
    <linearGradient id="paint6_linear_6_34859" x1="52.8295" y1="10.5" x2="52.8295" y2="31.5" gradientUnits="userSpaceOnUse">
      <stop stop-color="#C2FFE5"/>
      <stop offset="1" stop-color="#3C995B"/>
    </linearGradient>
    <linearGradient id="paint7_linear_6_34859" x1="57.4434" y1="0.5" x2="57.4434" y2="40.5" gradientUnits="userSpaceOnUse">
      <stop stop-color="#C2FFE5"/>
      <stop offset="1" stop-color="#3C995B"/>
    </linearGradient>
    <linearGradient id="paint8_linear_6_34859" x1="26.1611" y1="17.8984" x2="26.1611" y2="22.6073" gradientUnits="userSpaceOnUse">
      <stop stop-color="#C2FFE5"/>
      <stop offset="1" stop-color="#3C995B"/>
    </linearGradient>
    <linearGradient id="paint9_linear_6_34859" x1="28.7133" y1="13.1875" x2="28.7133" y2="29.1976" gradientUnits="userSpaceOnUse">
      <stop stop-color="#C2FFE5"/>
      <stop offset="1" stop-color="#3C995B"/>
    </linearGradient>
    <linearGradient id="paint10_linear_6_34859" x1="31.2646" y1="8.48047" x2="31.2646" y2="32.9665" gradientUnits="userSpaceOnUse">
      <stop stop-color="#C2FFE5"/>
      <stop offset="1" stop-color="#3C995B"/>
    </linearGradient>
    <linearGradient id="paint11_linear_6_34859" x1="0.729439" y1="18.3867" x2="0.729439" y2="22.1538" gradientUnits="userSpaceOnUse">
      <stop stop-color="#C2FFE5"/>
      <stop offset="1" stop-color="#3C995B"/>
    </linearGradient>
    <linearGradient id="paint12_linear_6_34859" x1="3.64936" y1="12.7383" x2="3.64936" y2="28.7484" gradientUnits="userSpaceOnUse">
      <stop stop-color="#C2FFE5"/>
      <stop offset="1" stop-color="#3C995B"/>
    </linearGradient>
    <linearGradient id="paint13_linear_6_34859" x1="5.83491" y1="8.02734" x2="5.83491" y2="32.5134" gradientUnits="userSpaceOnUse">
      <stop stop-color="#C2FFE5"/>
      <stop offset="1" stop-color="#3C995B"/>
    </linearGradient>
    <linearGradient id="paint14_linear_6_34859" x1="8.75092" y1="12.7383" x2="8.75092" y2="28.7484" gradientUnits="userSpaceOnUse">
      <stop stop-color="#C2FFE5"/>
      <stop offset="1" stop-color="#3C995B"/>
    </linearGradient>
    <linearGradient id="paint15_linear_6_34859" x1="12.0326" y1="15.5625" x2="12.0326" y2="24.9802" gradientUnits="userSpaceOnUse">
      <stop stop-color="#C2FFE5"/>
      <stop offset="1" stop-color="#3C995B"/>
    </linearGradient>
    <linearGradient id="paint16_linear_6_34859" x1="17.142" y1="9.91406" x2="17.142" y2="30.633" gradientUnits="userSpaceOnUse">
      <stop stop-color="#C2FFE5"/>
      <stop offset="1" stop-color="#3C995B"/>
    </linearGradient>
    <linearGradient id="paint17_linear_6_34859" x1="21.8847" y1="0.492187" x2="21.8847" y2="40.0465" gradientUnits="userSpaceOnUse">
      <stop stop-color="#C2FFE5"/>
      <stop offset="1" stop-color="#3C995B"/>
    </linearGradient>
    <linearGradient id="paint18_linear_6_34859" x1="64.0927" y1="17.8984" x2="64.0927" y2="22.6073" gradientUnits="userSpaceOnUse">
      <stop stop-color="#C2FFE5"/>
      <stop offset="1" stop-color="#3C995B"/>
    </linearGradient>
    <linearGradient id="paint19_linear_6_34859" x1="66.6449" y1="12.2461" x2="66.6449" y2="28.2562" gradientUnits="userSpaceOnUse">
      <stop stop-color="#C2FFE5"/>
      <stop offset="1" stop-color="#3C995B"/>
    </linearGradient>
    <linearGradient id="paint20_linear_6_34859" x1="69.1962" y1="7.53906" x2="69.1962" y2="32.0251" gradientUnits="userSpaceOnUse">
      <stop stop-color="#C2FFE5"/>
      <stop offset="1" stop-color="#3C995B"/>
    </linearGradient>
    <linearGradient id="paint21_linear_6_34859" x1="71.7504" y1="12.2461" x2="71.7504" y2="28.2562" gradientUnits="userSpaceOnUse">
      <stop stop-color="#C2FFE5"/>
      <stop offset="1" stop-color="#3C995B"/>
    </linearGradient>
    <linearGradient id="paint22_linear_6_34859" x1="74.3017" y1="17.8984" x2="74.3017" y2="22.6073" gradientUnits="userSpaceOnUse">
      <stop stop-color="#C2FFE5"/>
      <stop offset="1" stop-color="#3C995B"/>
    </linearGradient>
    <linearGradient id="paint23_linear_6_34859" x1="76.8559" y1="12.2461" x2="76.8559" y2="28.2562" gradientUnits="userSpaceOnUse">
      <stop stop-color="#C2FFE5"/>
      <stop offset="1" stop-color="#3C995B"/>
    </linearGradient>
    <linearGradient id="paint24_linear_6_34859" x1="79.413" y1="7.53906" x2="79.413" y2="32.0251" gradientUnits="userSpaceOnUse">
      <stop stop-color="#C2FFE5"/>
      <stop offset="1" stop-color="#3C995B"/>
    </linearGradient>
    <linearGradient id="paint25_linear_6_34859" x1="81.5986" y1="12.2461" x2="81.5986" y2="28.2562" gradientUnits="userSpaceOnUse">
      <stop stop-color="#C2FFE5"/>
      <stop offset="1" stop-color="#3C995B"/>
    </linearGradient>
    <linearGradient id="paint26_linear_6_34859" x1="85.2479" y1="16.0156" x2="85.2479" y2="25.4333" gradientUnits="userSpaceOnUse">
      <stop stop-color="#C2FFE5"/>
      <stop offset="1" stop-color="#3C995B"/>
    </linearGradient>
    <linearGradient id="paint27_linear_6_34859" x1="90.3534" y1="10.3633" x2="90.3534" y2="31.0822" gradientUnits="userSpaceOnUse">
      <stop stop-color="#C2FFE5"/>
      <stop offset="1" stop-color="#3C995B"/>
    </linearGradient>
    <linearGradient id="paint28_linear_6_34859" x1="95.4569" y1="0.00390625" x2="95.4569" y2="40.5" gradientUnits="userSpaceOnUse">
      <stop stop-color="#C2FFE5"/>
      <stop offset="1" stop-color="#3C995B"/>
    </linearGradient>
    <linearGradient id="paint29_linear_6_34859" x1="91.8115" y1="18.8398" x2="91.8115" y2="21.6652" gradientUnits="userSpaceOnUse">
      <stop stop-color="#C2FFE5"/>
      <stop offset="1" stop-color="#3C995B"/>
    </linearGradient>
    <linearGradient id="paint30_linear_6_34859" x1="0.729439" y1="0" x2="0.729439" y2="4.70885" gradientUnits="userSpaceOnUse">
      <stop stop-color="#C2FFE5"/>
      <stop offset="1" stop-color="#3C995B"/>
    </linearGradient>
    <linearGradient id="paint31_linear_6_34859" x1="1.09416" y1="0" x2="1.09416" y2="16.0101" gradientUnits="userSpaceOnUse">
      <stop stop-color="#C2FFE5"/>
      <stop offset="1" stop-color="#3C995B"/>
    </linearGradient>
    <linearGradient id="paint32_linear_6_34859" x1="0.729439" y1="0" x2="0.729439" y2="24.486" gradientUnits="userSpaceOnUse">
      <stop stop-color="#C2FFE5"/>
      <stop offset="1" stop-color="#3C995B"/>
    </linearGradient>
    <linearGradient id="paint33_linear_6_34859" x1="0.729439" y1="0" x2="0.729439" y2="16.0101" gradientUnits="userSpaceOnUse">
      <stop stop-color="#C2FFE5"/>
      <stop offset="1" stop-color="#3C995B"/>
    </linearGradient>
    <linearGradient id="paint34_linear_6_34859" x1="0.729439" y1="0" x2="0.729439" y2="4.70885" gradientUnits="userSpaceOnUse">
      <stop stop-color="#C2FFE5"/>
      <stop offset="1" stop-color="#3C995B"/>
    </linearGradient>
    <linearGradient id="paint35_linear_6_34859" x1="0.729439" y1="0" x2="0.729439" y2="4.70885" gradientUnits="userSpaceOnUse">
      <stop stop-color="#C2FFE5"/>
      <stop offset="1" stop-color="#3C995B"/>
    </linearGradient>
    <linearGradient id="paint36_linear_6_34859" x1="1.09416" y1="0" x2="1.09416" y2="16.0101" gradientUnits="userSpaceOnUse">
      <stop stop-color="#C2FFE5"/>
      <stop offset="1" stop-color="#3C995B"/>
    </linearGradient>
    <linearGradient id="paint37_linear_6_34859" x1="0.729439" y1="0" x2="0.729439" y2="24.486" gradientUnits="userSpaceOnUse">
      <stop stop-color="#C2FFE5"/>
      <stop offset="1" stop-color="#3C995B"/>
    </linearGradient>
    <linearGradient id="paint38_linear_6_34859" x1="0.729439" y1="0" x2="0.729439" y2="16.0101" gradientUnits="userSpaceOnUse">
      <stop stop-color="#C2FFE5"/>
      <stop offset="1" stop-color="#3C995B"/>
    </linearGradient>
    <linearGradient id="paint39_linear_6_34859" x1="0.729439" y1="0" x2="0.729439" y2="4.70885" gradientUnits="userSpaceOnUse">
      <stop stop-color="#C2FFE5"/>
      <stop offset="1" stop-color="#3C995B"/>
    </linearGradient>
    <linearGradient id="paint40_linear_6_34859" x1="0.729439" y1="0" x2="0.729439" y2="16.0101" gradientUnits="userSpaceOnUse">
      <stop stop-color="#C2FFE5"/>
      <stop offset="1" stop-color="#3C995B"/>
    </linearGradient>
    <linearGradient id="paint41_linear_6_34859" x1="0.729439" y1="0" x2="0.729439" y2="24.486" gradientUnits="userSpaceOnUse">
      <stop stop-color="#C2FFE5"/>
      <stop offset="1" stop-color="#3C995B"/>
    </linearGradient>
    <linearGradient id="paint42_linear_6_34859" x1="0.729439" y1="0" x2="0.729439" y2="16.0101" gradientUnits="userSpaceOnUse">
      <stop stop-color="#C2FFE5"/>
      <stop offset="1" stop-color="#3C995B"/>
    </linearGradient>
    <linearGradient id="paint43_linear_6_34859" x1="1.8236" y1="0" x2="1.8236" y2="9.4177" gradientUnits="userSpaceOnUse">
      <stop stop-color="#C2FFE5"/>
      <stop offset="1" stop-color="#3C995B"/>
    </linearGradient>
    <linearGradient id="paint44_linear_6_34859" x1="1.8236" y1="0" x2="1.8236" y2="20.7189" gradientUnits="userSpaceOnUse">
      <stop stop-color="#C2FFE5"/>
      <stop offset="1" stop-color="#3C995B"/>
    </linearGradient>
    <linearGradient id="paint45_linear_6_34859" x1="1.45888" y1="0" x2="1.45888" y2="40.4961" gradientUnits="userSpaceOnUse">
      <stop stop-color="#C2FFE5"/>
      <stop offset="1" stop-color="#3C995B"/>
    </linearGradient>
    <linearGradient id="paint46_linear_6_34859" x1="0.729439" y1="0" x2="0.729439" y2="4.70885" gradientUnits="userSpaceOnUse">
      <stop stop-color="#C2FFE5"/>
      <stop offset="1" stop-color="#3C995B"/>
    </linearGradient>
    <linearGradient id="paint47_linear_6_34859" x1="0.729439" y1="0" x2="0.729439" y2="16.0101" gradientUnits="userSpaceOnUse">
      <stop stop-color="#C2FFE5"/>
      <stop offset="1" stop-color="#3C995B"/>
    </linearGradient>
    <linearGradient id="paint48_linear_6_34859" x1="0.729439" y1="0" x2="0.729439" y2="24.486" gradientUnits="userSpaceOnUse">
      <stop stop-color="#C2FFE5"/>
      <stop offset="1" stop-color="#3C995B"/>
    </linearGradient>
    <linearGradient id="paint49_linear_6_34859" x1="0.729439" y1="0" x2="0.729439" y2="16.0101" gradientUnits="userSpaceOnUse">
      <stop stop-color="#C2FFE5"/>
      <stop offset="1" stop-color="#3C995B"/>
    </linearGradient>
    <linearGradient id="paint50_linear_6_34859" x1="1.8236" y1="0" x2="1.8236" y2="9.4177" gradientUnits="userSpaceOnUse">
      <stop stop-color="#C2FFE5"/>
      <stop offset="1" stop-color="#3C995B"/>
    </linearGradient>
    <linearGradient id="paint51_linear_6_34859" x1="1.8236" y1="0" x2="1.8236" y2="20.7189" gradientUnits="userSpaceOnUse">
      <stop stop-color="#C2FFE5"/>
      <stop offset="1" stop-color="#3C995B"/>
    </linearGradient>
    <linearGradient id="paint52_linear_6_34859" x1="1.45888" y1="0" x2="1.45888" y2="40.4961" gradientUnits="userSpaceOnUse">
      <stop stop-color="#C2FFE5"/>
      <stop offset="1" stop-color="#3C995B"/>
    </linearGradient>
    <linearGradient id="paint53_linear_6_34859" x1="1.09416" y1="0" x2="1.09416" y2="2.82531" gradientUnits="userSpaceOnUse">
      <stop stop-color="#C2FFE5"/>
      <stop offset="1" stop-color="#3C995B"/>
    </linearGradient>
  </defs>
</svg>